<svg fill="#000" xmlns="http://www.w3.org/2000/svg" x="0px" y="0px" width="18px" height="18px" viewBox="0 0 288 239.3" style="enable-background:new 0 0 288 239.3;" xml:space="preserve">
                              <path d="M170.2,0H17C7.6,0,0,7.6,0,17v24.7c0,9.4,7.6,17,17,17h153.1c9.4,0,17-7.6,17-17V17C187.2,7.6,179.6,0,170.2,0z"></path>
                              <path d="M170.2,90.2H17c-9.4,0-17,7.6-17,17V132c0,9.4,7.6,17,17,17h153.1c9.4,0,17-7.6,17-17v-24.7
                              C187.2,97.9,179.6,90.2,170.2,90.2z"></path>
                              <path d="M170.2,180.5H17c-9.4,0-17,7.6-17,17v24.7c0,9.4,7.6,17,17,17h153.1c9.4,0,17-7.6,17-17v-24.7
                              C187.2,188.1,179.6,180.5,170.2,180.5z"></path>
                              <path d="M279.3,167.2c5.3-2.7,8.7-8.1,8.7-14V98.3c0-6-3.3-11.3-8.7-14c-5.3-2.7-11.6-2.1-16.4,1.4l-36.8,27.4
                              c-4,3-6.3,7.6-6.3,12.6c0,5,2.3,9.6,6.3,12.6l36.8,27.4C267.7,169.3,274,169.9,279.3,167.2z"></path>
                           </svg>