<svg width="11" height="19" viewBox="0 0 11 19" fill="none" xmlns="http://www.w3.org/2000/svg">
<path fill-rule="evenodd" clip-rule="evenodd" d="M7.33333 2.71892H0.916667V15.7968H7.33333V2.71892ZM0 1.75017V16.7655H8.25V1.75017H0Z" fill="#AA1E1E"/>
<path fill-rule="evenodd" clip-rule="evenodd" d="M4.72826 0.0252265C4.43149 -0.0793186 4.125 0.15413 4.125 0.484733V18.5152C4.125 18.8459 4.43149 19.0793 4.72826 18.9748L10.6866 16.8759C10.8738 16.8099 11 16.6248 11 16.4164V2.58365C11 2.37516 10.8738 2.19007 10.6866 2.12414L4.72826 0.0252265ZM6.41667 9.98438C6.6698 9.98438 6.875 9.55063 6.875 9.01565C6.875 8.48063 6.6698 8.04693 6.41667 8.04693C6.16353 8.04693 5.95833 8.48063 5.95833 9.01565C5.95833 9.55063 6.16353 9.98438 6.41667 9.98438Z" fill="#AA1E1E"/>
</svg>
